<?xml version="1.0" encoding="UTF-8" standalone="no"?>
<!-- Created with Inkscape (http://www.inkscape.org/) -->

<svg
   width="50.137695mm"
   height="47.975418mm"
   viewBox="0 0 50.137694 47.975419"
   version="1.1"
   id="svg1"
   xmlns="http://www.w3.org/2000/svg"
   xmlns:svg="http://www.w3.org/2000/svg">
  <defs
     id="defs1" />
  <g
     id="layer1"
     transform="translate(-74.543386,-130.0197)">
    <path
       style="fill:none;fill-rule:evenodd;stroke:#f9f9f9;stroke-width:2;stroke-dasharray:none;stroke-opacity:1"
       id="path3-3-8-6-6-0-8"
       transform="rotate(123.15218,-73.250857,73.983481)"
       d="m -91.550023,-114.34898 c 0,3.96958 -2.596353,7.47211 -6.394461,8.62623 -3.798106,1.15412 -7.904196,-0.31174 -10.112726,-3.61023 -2.20854,-3.29848 -1.9998,-7.65338 0.51408,-10.72552 2.51389,-3.07213 6.74135,-4.13856 10.411662,-2.62647 l -3.434252,8.33599 z" />
    <path
       style="fill:#f9f9f9;fill-rule:evenodd;stroke:#f9f9f9;stroke-width:0.265;stroke-dasharray:none"
       id="path4-4-1-4-4-0-3"
       d="m -128.2821,127.11566 a 3.3845372,3.3845372 0 0 1 -3.3811,3.38454 3.3845372,3.3845372 0 0 1 -3.38797,-3.37767 3.3845372,3.3845372 0 0 1 3.37422,-3.39139 3.3845372,3.3845372 0 0 1 3.39482,3.37078"
       transform="rotate(-78.898244)" />
    <rect
       style="fill:#f9f9f9;fill-opacity:1;stroke:#f9f9f9;stroke-width:0.529166;stroke-linejoin:bevel;paint-order:stroke fill markers"
       id="rect1-2-9-2"
       width="1.5215657"
       height="6.649477"
       x="98.623451"
       y="156.90981" />
  </g>
</svg>
